<svg width="32" height="32" viewBox="0 0 32 32" fill="none" xmlns="http://www.w3.org/2000/svg">
<path d="M26 20.1399C25.4813 21.2849 25.2314 21.7961 24.5632 22.8086C23.6313 24.2211 22.3151 25.9811 20.6862 25.9961C19.2393 26.0086 18.8676 25.0586 16.9021 25.0699C14.9378 25.0799 14.5284 26.0136 13.0803 25.9998C11.4513 25.9848 10.2042 24.3961 9.27105 22.9824C6.66249 19.0324 6.38996 14.3949 7.9988 11.9287C9.14169 10.1775 10.9465 9.15247 12.642 9.15247C14.3689 9.15247 15.4552 10.095 16.882 10.095C18.2673 10.095 19.1112 9.14997 21.1082 9.14997C22.6153 9.14997 24.2153 9.96871 25.3545 11.3812C21.6218 13.4174 22.2272 18.7224 26 20.1399ZM19.5935 7.57248C20.3182 6.64498 20.8695 5.33749 20.6698 4C19.4843 4.08125 18.099 4.83124 17.2889 5.80999C16.5554 6.69748 15.9488 8.01372 16.1837 9.29371C17.4773 9.33246 18.8161 8.56372 19.5935 7.57248Z" fill="white"/>
</svg>
