<svg width="32" height="32" viewBox="0 0 32 32" fill="none" xmlns="http://www.w3.org/2000/svg">
<path d="M16.2714 15.6087L19.3332 12.6494L9.44366 7.27725C8.78822 6.93498 8.1742 6.88695 7.63577 7.26124L16.2714 15.6087ZM19.8551 19.0734L23.0381 17.3431C23.6593 17.0068 24 16.5304 24 16.002C24 15.4746 23.6593 14.9972 23.0391 14.661L20.1575 13.0968L16.9134 16.2312L19.8551 19.0734ZM7.10354 7.9888C7.03728 8.18595 7 8.40613 7 8.64731V23.3637C7 23.745 7.08698 24.0733 7.24437 24.3345L15.6284 16.2302L7.10354 7.9888ZM16.2714 16.8507L7.93397 24.9099C8.09343 24.969 8.26532 25 8.44652 25C8.76958 25 9.1061 24.9079 9.44884 24.7238L19.0319 19.5228L16.2714 16.8507Z" fill="white"/>
</svg>
